<mxfile host="app.diagrams.net" modified="2023-01-04T03:16:02.311Z" agent="5.0 (Macintosh; Intel Mac OS X 10_15_7) AppleWebKit/537.36 (KHTML, like Gecko) Chrome/108.0.0.0 Safari/537.36" version="20.6.0" etag="3EiwLe5_QkjVQkWRiwdh" type="github">
  <diagram id="oWhQPAUo-1SlJso4I2Jn" name="第 1 页">
    <mxGraphModel dx="946" dy="506" grid="1" gridSize="10" guides="1" tooltips="1" connect="1" arrows="1" fold="1" page="1" pageScale="1" pageWidth="827" pageHeight="1169" math="0" shadow="0">
      <root>
        <mxCell id="0" />
        <mxCell id="1" parent="0" />
        <mxCell id="Q05Lq7a4I36NIOsIfpHz-1" value="clmm_router" style="rounded=0;whiteSpace=wrap;html=1;hachureGap=4;jiggle=2;fontFamily=Architects Daughter;fontSource=https%3A%2F%2Ffonts.googleapis.com%2Fcss%3Ffamily%3DArchitects%2BDaughter;fontSize=20;sketch=1;fillColor=#dae8fc;strokeColor=#6c8ebf;" vertex="1" parent="1">
          <mxGeometry x="220" y="160" width="140" height="70" as="geometry" />
        </mxCell>
        <mxCell id="Q05Lq7a4I36NIOsIfpHz-2" value="pool" style="rounded=0;whiteSpace=wrap;html=1;hachureGap=4;jiggle=2;fontFamily=Architects Daughter;fontSource=https%3A%2F%2Ffonts.googleapis.com%2Fcss%3Ffamily%3DArchitects%2BDaughter;fontSize=20;sketch=1;fillColor=#dae8fc;strokeColor=#6c8ebf;" vertex="1" parent="1">
          <mxGeometry x="210" y="280" width="100" height="50" as="geometry" />
        </mxCell>
        <mxCell id="Q05Lq7a4I36NIOsIfpHz-3" value="fee_tier" style="rounded=0;whiteSpace=wrap;html=1;hachureGap=4;jiggle=2;fontFamily=Architects Daughter;fontSource=https%3A%2F%2Ffonts.googleapis.com%2Fcss%3Ffamily%3DArchitects%2BDaughter;fontSize=20;sketch=1;fillColor=#f8cecc;strokeColor=#b85450;" vertex="1" parent="1">
          <mxGeometry x="340" y="280" width="80" height="50" as="geometry" />
        </mxCell>
        <mxCell id="Q05Lq7a4I36NIOsIfpHz-4" value="partner" style="rounded=0;whiteSpace=wrap;html=1;hachureGap=4;jiggle=2;fontFamily=Architects Daughter;fontSource=https%3A%2F%2Ffonts.googleapis.com%2Fcss%3Ffamily%3DArchitects%2BDaughter;fontSize=20;sketch=1;fillColor=#f8cecc;strokeColor=#b85450;" vertex="1" parent="1">
          <mxGeometry x="440" y="280" width="80" height="50" as="geometry" />
        </mxCell>
        <mxCell id="Q05Lq7a4I36NIOsIfpHz-5" value="position" style="rounded=0;whiteSpace=wrap;html=1;hachureGap=4;jiggle=2;fontFamily=Architects Daughter;fontSource=https%3A%2F%2Ffonts.googleapis.com%2Fcss%3Ffamily%3DArchitects%2BDaughter;fontSize=20;sketch=1;fillColor=#f8cecc;strokeColor=#b85450;" vertex="1" parent="1">
          <mxGeometry x="534" y="280" width="80" height="50" as="geometry" />
        </mxCell>
        <mxCell id="Q05Lq7a4I36NIOsIfpHz-6" value="factory" style="rounded=0;whiteSpace=wrap;html=1;hachureGap=4;jiggle=2;fontFamily=Architects Daughter;fontSource=https%3A%2F%2Ffonts.googleapis.com%2Fcss%3Ffamily%3DArchitects%2BDaughter;fontSize=20;sketch=1;" vertex="1" parent="1">
          <mxGeometry x="100" y="280" width="80" height="50" as="geometry" />
        </mxCell>
        <mxCell id="Q05Lq7a4I36NIOsIfpHz-7" value="config" style="rounded=0;whiteSpace=wrap;html=1;hachureGap=4;jiggle=2;fontFamily=Architects Daughter;fontSource=https%3A%2F%2Ffonts.googleapis.com%2Fcss%3Ffamily%3DArchitects%2BDaughter;fontSize=20;sketch=1;fillColor=#f8cecc;strokeColor=#b85450;" vertex="1" parent="1">
          <mxGeometry x="630" y="280" width="80" height="50" as="geometry" />
        </mxCell>
      </root>
    </mxGraphModel>
  </diagram>
</mxfile>
